
<svg width="19px" height="20px" viewBox="0 0 19 20" xmlns="http://www.w3.org/2000/svg">
    <g stroke="none" stroke-width="1" fill="none" fill-rule="evenodd">
        <g transform="translate(-1035.000000, -6743.000000)" fill="#505D68" fill-rule="nonzero">
            <g transform="translate(135.000000, 6283.000000)">
                <g transform="translate(900.000000, 460.000000)">
                    <path d="M17.914612,7.47316583 L6.86398361,18.1691457 C5.50439344,19.4852261 3.29239891,19.4852261 1.9342623,18.1698492 C0.574672131,16.8537688 0.574672131,14.7129648 1.9342623,13.3964824 L3.3592623,12.0156784 L12.9834372,2.70020101 L14.1427486,1.57869347 C15.0594208,0.690954774 16.5509727,0.690954774 17.4690984,1.57869347 C18.3857705,2.46673367 18.3857705,3.91125628 17.4690984,4.79889447 L14.4098907,7.76090452 L6.68706557,15.2365829 L6.50910929,15.4088442 C6.05020219,15.8523618 5.30411475,15.8530653 4.84520765,15.4088442 C4.38630055,14.9653266 4.38630055,14.2431156 4.84520765,13.7988945 L12.7464044,6.15095477 C12.9106557,5.99236181 12.9106557,5.73477387 12.7464044,5.57577889 C12.5818415,5.41678392 12.3171913,5.41678392 12.1522131,5.57577889 L4.25143169,13.2241206 C3.46443716,13.9852261 3.46443716,15.2236181 4.25143169,15.9843216 C5.03697268,16.7454271 6.31589071,16.7447236 7.10288525,15.9843216 L7.28084153,15.8120603 L15.0036667,8.33638191 L18.0628743,5.37437186 C19.3076339,4.16944724 19.308776,2.20914573 18.0628743,1.0038191 C16.8184262,-0.20080402 14.7934208,-0.20080402 13.5478306,1.0038191 L12.3899727,2.12532663 L2.76590164,11.441206 L1.34090164,12.8213065 C-0.346464481,14.4538693 -0.346464481,17.1112563 1.34090164,18.7446231 C3.02712568,20.3779899 5.77195082,20.3775879 7.45921311,18.7446231 L18.508388,8.04834171 C18.6729508,7.88974874 18.6729508,7.63256281 18.508388,7.47356784 C18.3438251,7.31427136 18.0791749,7.31427136 17.914612,7.47316583 Z" id="Path"></path>
                </g>
            </g>
        </g>
    </g>
</svg>