<svg xmlns="http://www.w3.org/2000/svg" xmlns:xlink="http://www.w3.org/1999/xlink" width="80" height="69" viewBox="0 0 80 69">
    <defs>
        <path id="a" d="M0 .012h59.99v59.721H0z"/>
        <path id="c" d="M0 0h52v52H0z"/>
    </defs>
    <g fill="none" fill-rule="evenodd">
        <g transform="translate(11 7.255)">
            <mask id="b" fill="#fff">
                <use xlink:href="#a"/>
            </mask>
            <g mask="url(#b)" opacity=".16">
                <g transform="translate(4 6.745)">
                    <mask id="d" fill="#fff">
                        <use xlink:href="#c"/>
                    </mask>
                    <path fill="#FFF" d="M23.182 21.715c-.01-.807-.676-1.468-1.47-1.46a1.48 1.48 0 0 0-1.475 1.526 1.465 1.465 0 0 0 1.513 1.416c.839-.017 1.444-.642 1.432-1.482m7.092 7.081c-.838-.01-1.472.603-1.486 1.44-.014.811.627 1.504 1.419 1.535.792.031 1.531-.688 1.54-1.496.006-.794-.665-1.468-1.473-1.479m8.492-5.594c.837.014 1.483-.595 1.511-1.426.029-.816-.67-1.544-1.481-1.546-.778-.002-1.479.695-1.491 1.482-.013.798.653 1.477 1.461 1.49M23.182 38.825c.01-.806-.633-1.49-1.43-1.52-.797-.03-1.529.686-1.53 1.497 0 .796.675 1.47 1.477 1.475a1.455 1.455 0 0 0 1.483-1.452M13.176 28.797c-.827.003-1.486.644-1.484 1.443.002.826.69 1.54 1.485 1.54.79 0 1.51-.741 1.49-1.534a1.503 1.503 0 0 0-1.49-1.45m18.588-15.6c-.006-.805-.729-1.5-1.538-1.48a1.454 1.454 0 0 0-1.439 1.49c.003.828.698 1.51 1.516 1.488.77-.021 1.467-.735 1.461-1.498M21.715 52c-3.6-.003-5.788-3.758-4.063-6.976.091-.17.201-.33.295-.498.367-.655.309-1.29-.16-1.77-.453-.465-1.112-.53-1.778-.218-.635.297-1.262.683-1.934.813-1.952.377-3.58-.286-4.708-1.912-1.11-1.6-1.141-3.314-.188-5.028.124-.225.262-.446.355-.683.237-.602.112-1.144-.368-1.576-.483-.435-1.022-.456-1.61-.186-.695.32-1.383.716-2.119.876-1.893.411-4.022-.657-4.876-2.335-1.002-1.968-.64-4.227.909-5.659 1.48-1.369 3.771-1.628 5.494-.62.147.086.29.182.441.263.671.357 1.332.31 1.793-.123.478-.449.533-1.132.21-1.836-.301-.655-.664-1.313-.795-2.008-.37-1.968.36-3.578 2.002-4.66 1.624-1.07 3.357-1.011 5.047-.043.241.139.462.316.71.44.59.294 1.142.174 1.591-.276.45-.449.573-1.003.274-1.591-.242-.475-.564-.914-.77-1.403-.806-1.91-.311-4.027 1.208-5.318 1.574-1.338 3.71-1.509 5.507-.442.147.088.293.179.448.252.63.297 1.305.208 1.715-.254.449-.506.46-1.07.193-1.676-.299-.68-.675-1.35-.826-2.066-.428-2.014.653-4.155 2.428-5.007 1.92-.922 4.248-.486 5.592 1.047 1.446 1.65 1.628 3.919.457 5.707-.543.829-.54 1.481.01 2.033.539.54 1.227.542 2.043.002 1.834-1.21 4.22-.965 5.846.601 1.567 1.51 1.848 3.883.684 5.768a4.352 4.352 0 0 0-.309.562c-.264.617-.136 1.23.328 1.644.473.423 1.058.456 1.67.172.694-.32 1.388-.69 2.123-.863 2.567-.602 5.448 1.502 5.416 4.617-.038 3.642-3.902 5.809-7.051 3.958l-.166-.098c-.864-.499-1.557-.487-2.064.034-.513.528-.523 1.217.001 2.061 1.088 1.75 1.068 3.514-.08 5.189-1.088 1.586-2.684 2.243-4.582 1.929-.673-.111-1.339-.447-1.937-.8-.94-.555-1.585-.61-2.15-.026-.549.569-.53 1.215.062 2.093 1.894 2.81.572 6.411-2.676 7.245-1.165.3-2.296.18-3.345-.46a6.98 6.98 0 0 0-.73-.406c-.602-.275-1.261-.175-1.66.265-.454.5-.495 1.074-.202 1.669.16.326.37.628.523.957 1.455 3.107-.793 6.623-4.228 6.62" mask="url(#d)"/>
                </g>
            </g>
            <path fill="#FFF" stroke="#001" d="M25.553 56.845c3.576.003 5.916-3.644 4.402-6.868-.16-.34-.378-.654-.545-.992-.305-.618-.262-1.212.21-1.732.416-.456 1.102-.56 1.73-.275.262.12.512.27.759.421 1.092.664 2.27.789 3.482.478 3.383-.865 4.758-4.6 2.787-7.515-.616-.911-.636-1.581-.064-2.172.588-.606 1.26-.548 2.238.027.622.367 1.315.715 2.017.83 1.976.326 3.637-.355 4.77-2.001 1.195-1.738 1.216-3.567.084-5.382-.546-.876-.536-1.591-.002-2.138.528-.541 1.249-.554 2.15-.036.058.033.114.069.172.102 3.278 1.92 7.302-.327 7.341-4.106.033-3.23-2.966-5.413-5.638-4.789-.766.18-1.488.562-2.21.895-.639.295-1.247.26-1.74-.178-.483-.429-.616-1.066-.341-1.706.088-.203.205-.394.322-.583 1.211-1.955.919-4.416-.713-5.982-1.693-1.626-4.177-1.88-6.086-.624-.85.56-1.566.558-2.128-.003-.572-.572-.576-1.248-.01-2.108 1.22-1.855 1.03-4.208-.476-5.92-1.399-1.59-3.822-2.043-5.822-1.086-1.848.883-2.973 3.105-2.528 5.194.158.742.549 1.438.86 2.143.278.629.267 1.213-.2 1.738-.428.479-1.131.572-1.787.263-.16-.075-.313-.17-.466-.26-1.87-1.107-4.094-.93-5.733.457-1.582 1.34-2.097 3.535-1.259 5.517.215.507.55.962.802 1.455.311.61.183 1.185-.285 1.651-.467.467-1.042.592-1.657.286-.258-.128-.488-.312-.739-.456-1.76-1.005-3.564-1.066-5.255.045-1.71 1.122-2.469 2.792-2.084 4.834.137.72.514 1.403.827 2.082.337.731.28 1.44-.218 1.905-.48.45-1.168.498-1.866.127-.158-.083-.306-.183-.46-.273-1.793-1.045-4.18-.776-5.72.644-1.612 1.485-1.99 3.83-.946 5.87.89 1.741 3.106 2.849 5.076 2.422.766-.166 1.483-.577 2.207-.908.611-.28 1.173-.259 1.676.193.5.447.63 1.01.383 1.634-.097.247-.24.476-.37.708-.992 1.78-.96 3.556.196 5.216 1.174 1.687 2.87 2.375 4.902 1.984.7-.135 1.353-.535 2.013-.844.694-.324 1.38-.256 1.852.226.487.498.549 1.157.167 1.837-.098.175-.213.34-.307.516-1.797 3.338.48 7.233 4.23 7.237M42.136 41.94c.256 2.589-.378 4.834-2.193 6.654-1.812 1.818-4.037 2.527-6.665 2.236.277 2.956-.633 5.402-2.93 7.244-1.541 1.236-3.34 1.747-5.31 1.646-3.61-.186-7.751-3.364-7.259-8.877-2.538.283-4.788-.396-6.592-2.198-1.808-1.806-2.505-4.043-2.225-6.65-2.88.275-5.297-.563-7.16-2.739C.564 37.814-.027 36.11 0 34.221c.033-2.322.942-4.274 2.71-5.797 1.763-1.52 3.847-2.066 6.218-1.81-.276-2.61.423-4.833 2.241-6.64 1.824-1.812 4.073-2.457 6.674-2.18-.253-2.578.378-4.825 2.192-6.644 1.812-1.818 4.036-2.534 6.671-2.239-.282-2.926.616-5.353 2.87-7.2C31.027.522 32.73-.035 34.603.015c2.332.061 4.283.979 5.79 2.762 1.485 1.758 1.983 3.828 1.77 6.152 2.624-.297 4.869.401 6.677 2.208 1.79 1.79 2.503 4 2.205 6.602 3.053-.263 5.574.678 7.426 3.117 1.166 1.537 1.634 3.297 1.495 5.202-.29 3.957-3.866 7.652-8.895 7.1.252 2.52-.408 4.755-2.214 6.566-1.819 1.824-4.057 2.5-6.72 2.217" mask="url(#b)"/>
        </g>
        <path fill="#FFF" d="M47.017 23.848c.006.791-.72 1.531-1.523 1.553-.85.023-1.574-.685-1.577-1.543a1.51 1.51 0 0 1 1.498-1.545c.842-.022 1.595.7 1.602 1.535M27.662 40.03a1.562 1.562 0 0 1 1.553 1.503c.02.823-.729 1.591-1.551 1.591-.828 0-1.545-.74-1.547-1.597-.002-.829.683-1.493 1.545-1.496M38.08 50.433a1.512 1.512 0 0 1-1.544 1.506c-.835-.004-1.538-.704-1.538-1.53.001-.84.763-1.584 1.593-1.553.83.03 1.5.741 1.49 1.577M13 57.023a.981.981 0 0 1-1.002.977 1.01 1.01 0 0 1-.998-.992c0-.545.495-1.027 1.034-1.007.538.02.973.48.966 1.022M71 49.023a.981.981 0 0 1-1.002.977 1.01 1.01 0 0 1-.998-.992c0-.545.495-1.027 1.034-1.007.538.02.973.48.966 1.022M2 44.023A.981.981 0 0 1 .998 45 1.01 1.01 0 0 1 0 44.008C0 43.463.495 42.98 1.034 43c.538.02.973.48.966 1.022M42 1.023A.981.981 0 0 1 40.998 2 1.01 1.01 0 0 1 40 1.008C40 .463 40.495-.02 41.034 0c.538.02.973.48.966 1.022M72 20.023a.981.981 0 0 1-1.002.977 1.01 1.01 0 0 1-.998-.992c0-.545.495-1.027 1.034-1.007.538.02.973.48.966 1.022M57 52.512a.49.49 0 0 1-.501.488.505.505 0 0 1-.499-.496c0-.273.248-.514.517-.504.269.01.486.24.483.512M80 33.512a.49.49 0 0 1-.501.488.505.505 0 0 1-.499-.496c0-.273.248-.514.517-.504.269.01.486.24.483.512M32 8.512a.49.49 0 0 1-.501.488.505.505 0 0 1-.499-.496c0-.273.248-.514.517-.504.269.01.486.24.483.512M65 63.512a.49.49 0 0 1-.501.488.505.505 0 0 1-.499-.496c0-.273.248-.514.517-.504.269.01.486.24.483.512M12 28.512a.49.49 0 0 1-.501.488.505.505 0 0 1-.499-.496c0-.273.248-.514.517-.504.269.01.486.24.483.512M26 62.512a.49.49 0 0 1-.501.488.505.505 0 0 1-.499-.496c0-.273.248-.514.517-.504.269.01.486.24.483.512M58 8.512a.49.49 0 0 1-.501.488.505.505 0 0 1-.499-.496c0-.273.248-.514.517-.504.269.01.486.24.483.512M27 19.535c-.01.83-.668 1.47-1.503 1.465-.813-.004-1.498-.685-1.497-1.488 0-.818.743-1.541 1.55-1.511.808.03 1.46.72 1.45 1.534M52 67.535c-.01.83-.668 1.47-1.503 1.465-.813-.004-1.498-.685-1.497-1.488 0-.818.743-1.541 1.55-1.511.808.03 1.46.72 1.45 1.534M54.306 34.227c-.842-.014-1.535-.718-1.522-1.545.013-.817.743-1.54 1.553-1.538.845.002 1.571.757 1.542 1.604-.03.862-.702 1.494-1.573 1.48M45.464 40.03c.841.011 1.54.71 1.532 1.534-.008.838-.778 1.584-1.602 1.552-.825-.032-1.492-.75-1.478-1.592.015-.868.675-1.505 1.548-1.494M38.08 32.685c.012.87-.618 1.519-1.491 1.536-.854.017-1.553-.635-1.575-1.469a1.539 1.539 0 0 1 1.535-1.583c.827-.008 1.52.678 1.531 1.516"/>
    </g>
</svg>
