<?xml version="1.0" encoding="utf-8"?><svg viewBox="0 0 512 512" xmlns="http://www.w3.org/2000/svg" xmlns:xlink="http://www.w3.org/1999/xlink"><style>:root>svg{display:none}:root>svg:target{display:block}</style><svg viewBox="0 0 19 20" id="attachment" xmlns="http://www.w3.org/2000/svg"><path d="M17.915 7.473L6.864 18.17c-1.36 1.316-3.572 1.316-4.93 0a3.303 3.303 0 010-4.773l1.425-1.38L12.983 2.7l1.16-1.121a2.41 2.41 0 013.326 0 2.23 2.23 0 010 3.22L14.41 7.76l-7.722 7.476-.178.172a1.206 1.206 0 01-1.664 0 1.113 1.113 0 010-1.61l7.901-7.648a.397.397 0 000-.575.43.43 0 00-.594 0l-7.9 7.648c-.788.761-.788 2 0 2.76.785.761 2.064.76 2.85 0l.179-.172 7.723-7.476 3.059-2.962a3.023 3.023 0 000-4.37c-1.245-1.205-3.27-1.205-4.515 0L12.39 2.125l-9.624 9.316-1.425 1.38a4.098 4.098 0 000 5.924c1.686 1.633 4.431 1.633 6.118 0L18.51 8.048a.396.396 0 000-.574.429.429 0 00-.594 0z" fill="#505D68" fill-rule="nonzero"/></svg><svg viewBox="0 0 80 69" id="cookie" xmlns="http://www.w3.org/2000/svg"><defs><path id="ba" d="M0 .012h59.99v59.721H0z"/><path id="bc" d="M0 0h52v52H0z"/></defs><g fill="none" fill-rule="evenodd"><g transform="translate(11 7.255)"><mask id="bb" fill="#fff"><use xlink:href="#ba"/></mask><g mask="url(#bb)" opacity=".16"><g transform="translate(4 6.745)"><mask id="bd" fill="#fff"><use xlink:href="#bc"/></mask><path fill="#FFF" d="M23.182 21.715c-.01-.807-.676-1.468-1.47-1.46a1.48 1.48 0 00-1.475 1.526 1.465 1.465 0 001.513 1.416c.839-.017 1.444-.642 1.432-1.482m7.092 7.081c-.838-.01-1.472.603-1.486 1.44-.014.811.627 1.504 1.419 1.535.792.031 1.531-.688 1.54-1.496.006-.794-.665-1.468-1.473-1.479m8.492-5.594c.837.014 1.483-.595 1.511-1.426.029-.816-.67-1.544-1.481-1.546-.778-.002-1.479.695-1.491 1.482-.013.798.653 1.477 1.461 1.49M23.182 38.825c.01-.806-.633-1.49-1.43-1.52-.797-.03-1.529.686-1.53 1.497 0 .796.675 1.47 1.477 1.475a1.455 1.455 0 001.483-1.452M13.176 28.797c-.827.003-1.486.644-1.484 1.443.002.826.69 1.54 1.485 1.54.79 0 1.51-.741 1.49-1.534a1.503 1.503 0 00-1.49-1.45m18.588-15.6c-.006-.805-.729-1.5-1.538-1.48a1.454 1.454 0 00-1.439 1.49c.003.828.698 1.51 1.516 1.488.77-.021 1.467-.735 1.461-1.498M21.715 52c-3.6-.003-5.788-3.758-4.063-6.976.091-.17.201-.33.295-.498.367-.655.309-1.29-.16-1.77-.453-.465-1.112-.53-1.778-.218-.635.297-1.262.683-1.934.813-1.952.377-3.58-.286-4.708-1.912-1.11-1.6-1.141-3.314-.188-5.028.124-.225.262-.446.355-.683.237-.602.112-1.144-.368-1.576-.483-.435-1.022-.456-1.61-.186-.695.32-1.383.716-2.119.876-1.893.411-4.022-.657-4.876-2.335-1.002-1.968-.64-4.227.909-5.659 1.48-1.369 3.771-1.628 5.494-.62.147.086.29.182.441.263.671.357 1.332.31 1.793-.123.478-.449.533-1.132.21-1.836-.301-.655-.664-1.313-.795-2.008-.37-1.968.36-3.578 2.002-4.66 1.624-1.07 3.357-1.011 5.047-.043.241.139.462.316.71.44.59.294 1.142.174 1.591-.276.45-.449.573-1.003.274-1.591-.242-.475-.564-.914-.77-1.403-.806-1.91-.311-4.027 1.208-5.318 1.574-1.338 3.71-1.509 5.507-.442.147.088.293.179.448.252.63.297 1.305.208 1.715-.254.449-.506.46-1.07.193-1.676-.299-.68-.675-1.35-.826-2.066-.428-2.014.653-4.155 2.428-5.007 1.92-.922 4.248-.486 5.592 1.047 1.446 1.65 1.628 3.919.457 5.707-.543.829-.54 1.481.01 2.033.539.54 1.227.542 2.043.002 1.834-1.21 4.22-.965 5.846.601 1.567 1.51 1.848 3.883.684 5.768a4.352 4.352 0 00-.309.562c-.264.617-.136 1.23.328 1.644.473.423 1.058.456 1.67.172.694-.32 1.388-.69 2.123-.863 2.567-.602 5.448 1.502 5.416 4.617-.038 3.642-3.902 5.809-7.051 3.958l-.166-.098c-.864-.499-1.557-.487-2.064.034-.513.528-.523 1.217.001 2.061 1.088 1.75 1.068 3.514-.08 5.189-1.088 1.586-2.684 2.243-4.582 1.929-.673-.111-1.339-.447-1.937-.8-.94-.555-1.585-.61-2.15-.026-.549.569-.53 1.215.062 2.093 1.894 2.81.572 6.411-2.676 7.245-1.165.3-2.296.18-3.345-.46a6.98 6.98 0 00-.73-.406c-.602-.275-1.261-.175-1.66.265-.454.5-.495 1.074-.202 1.669.16.326.37.628.523.957 1.455 3.107-.793 6.623-4.228 6.62" mask="url(#bd)"/></g></g><path fill="#FFF" stroke="#001" d="M25.553 56.845c3.576.003 5.916-3.644 4.402-6.868-.16-.34-.378-.654-.545-.992-.305-.618-.262-1.212.21-1.732.416-.456 1.102-.56 1.73-.275.262.12.512.27.759.421 1.092.664 2.27.789 3.482.478 3.383-.865 4.758-4.6 2.787-7.515-.616-.911-.636-1.581-.064-2.172.588-.606 1.26-.548 2.238.027.622.367 1.315.715 2.017.83 1.976.326 3.637-.355 4.77-2.001 1.195-1.738 1.216-3.567.084-5.382-.546-.876-.536-1.591-.002-2.138.528-.541 1.249-.554 2.15-.036.058.033.114.069.172.102 3.278 1.92 7.302-.327 7.341-4.106.033-3.23-2.966-5.413-5.638-4.789-.766.18-1.488.562-2.21.895-.639.295-1.247.26-1.74-.178-.483-.429-.616-1.066-.341-1.706.088-.203.205-.394.322-.583 1.211-1.955.919-4.416-.713-5.982-1.693-1.626-4.177-1.88-6.086-.624-.85.56-1.566.558-2.128-.003-.572-.572-.576-1.248-.01-2.108 1.22-1.855 1.03-4.208-.476-5.92-1.399-1.59-3.822-2.043-5.822-1.086-1.848.883-2.973 3.105-2.528 5.194.158.742.549 1.438.86 2.143.278.629.267 1.213-.2 1.738-.428.479-1.131.572-1.787.263-.16-.075-.313-.17-.466-.26-1.87-1.107-4.094-.93-5.733.457-1.582 1.34-2.097 3.535-1.259 5.517.215.507.55.962.802 1.455.311.61.183 1.185-.285 1.651-.467.467-1.042.592-1.657.286-.258-.128-.488-.312-.739-.456-1.76-1.005-3.564-1.066-5.255.045-1.71 1.122-2.469 2.792-2.084 4.834.137.72.514 1.403.827 2.082.337.731.28 1.44-.218 1.905-.48.45-1.168.498-1.866.127-.158-.083-.306-.183-.46-.273-1.793-1.045-4.18-.776-5.72.644-1.612 1.485-1.99 3.83-.946 5.87.89 1.741 3.106 2.849 5.076 2.422.766-.166 1.483-.577 2.207-.908.611-.28 1.173-.259 1.676.193.5.447.63 1.01.383 1.634-.097.247-.24.476-.37.708-.992 1.78-.96 3.556.196 5.216 1.174 1.687 2.87 2.375 4.902 1.984.7-.135 1.353-.535 2.013-.844.694-.324 1.38-.256 1.852.226.487.498.549 1.157.167 1.837-.098.175-.213.34-.307.516-1.797 3.338.48 7.233 4.23 7.237M42.136 41.94c.256 2.589-.378 4.834-2.193 6.654-1.812 1.818-4.037 2.527-6.665 2.236.277 2.956-.633 5.402-2.93 7.244-1.541 1.236-3.34 1.747-5.31 1.646-3.61-.186-7.751-3.364-7.259-8.877-2.538.283-4.788-.396-6.592-2.198-1.808-1.806-2.505-4.043-2.225-6.65-2.88.275-5.297-.563-7.16-2.739C.564 37.814-.027 36.11 0 34.221c.033-2.322.942-4.274 2.71-5.797 1.763-1.52 3.847-2.066 6.218-1.81-.276-2.61.423-4.833 2.241-6.64 1.824-1.812 4.073-2.457 6.674-2.18-.253-2.578.378-4.825 2.192-6.644 1.812-1.818 4.036-2.534 6.671-2.239-.282-2.926.616-5.353 2.87-7.2C31.027.522 32.73-.035 34.603.015c2.332.061 4.283.979 5.79 2.762 1.485 1.758 1.983 3.828 1.77 6.152 2.624-.297 4.869.401 6.677 2.208 1.79 1.79 2.503 4 2.205 6.602 3.053-.263 5.574.678 7.426 3.117 1.166 1.537 1.634 3.297 1.495 5.202-.29 3.957-3.866 7.652-8.895 7.1.252 2.52-.408 4.755-2.214 6.566-1.819 1.824-4.057 2.5-6.72 2.217" mask="url(#bb)"/></g><path fill="#FFF" d="M47.017 23.848c.006.791-.72 1.531-1.523 1.553-.85.023-1.574-.685-1.577-1.543a1.51 1.51 0 011.498-1.545c.842-.022 1.595.7 1.602 1.535M27.662 40.03a1.562 1.562 0 011.553 1.503c.02.823-.729 1.591-1.551 1.591-.828 0-1.545-.74-1.547-1.597-.002-.829.683-1.493 1.545-1.496M38.08 50.433a1.512 1.512 0 01-1.544 1.506c-.835-.004-1.538-.704-1.538-1.53.001-.84.763-1.584 1.593-1.553.83.03 1.5.741 1.49 1.577M13 57.023a.981.981 0 01-1.002.977 1.01 1.01 0 01-.998-.992c0-.545.495-1.027 1.034-1.007.538.02.973.48.966 1.022m58-8a.981.981 0 01-1.002.977 1.01 1.01 0 01-.998-.992c0-.545.495-1.027 1.034-1.007.538.02.973.48.966 1.022m-69-5A.981.981 0 01.998 45 1.01 1.01 0 010 44.008C0 43.463.495 42.98 1.034 43c.538.02.973.48.966 1.022M42 1.023A.981.981 0 0140.998 2 1.01 1.01 0 0140 1.008C40 .463 40.495-.02 41.034 0c.538.02.973.48.966 1.022m30 19.001a.981.981 0 01-1.002.977 1.01 1.01 0 01-.998-.992c0-.545.495-1.027 1.034-1.007.538.02.973.48.966 1.022M57 52.512a.49.49 0 01-.501.488.505.505 0 01-.499-.496c0-.273.248-.514.517-.504.269.01.486.24.483.512m23-19a.49.49 0 01-.501.488.505.505 0 01-.499-.496c0-.273.248-.514.517-.504.269.01.486.24.483.512m-48-25a.49.49 0 01-.501.488.505.505 0 01-.499-.496c0-.273.248-.514.517-.504.269.01.486.24.483.512m33 55a.49.49 0 01-.501.488.505.505 0 01-.499-.496c0-.273.248-.514.517-.504.269.01.486.24.483.512m-53-35a.49.49 0 01-.501.488.505.505 0 01-.499-.496c0-.273.248-.514.517-.504.269.01.486.24.483.512m14 34a.49.49 0 01-.501.488.505.505 0 01-.499-.496c0-.273.248-.514.517-.504.269.01.486.24.483.512m32-54a.49.49 0 01-.501.488.505.505 0 01-.499-.496c0-.273.248-.514.517-.504.269.01.486.24.483.512M27 19.535c-.01.83-.668 1.47-1.503 1.465-.813-.004-1.498-.685-1.497-1.488 0-.818.743-1.541 1.55-1.511.808.03 1.46.72 1.45 1.534m25 48c-.01.83-.668 1.47-1.503 1.465-.813-.004-1.498-.685-1.497-1.488 0-.818.743-1.541 1.55-1.511.808.03 1.46.72 1.45 1.534m2.306-33.308c-.842-.014-1.535-.718-1.522-1.545.013-.817.743-1.54 1.553-1.538.845.002 1.571.757 1.542 1.604-.03.862-.702 1.494-1.573 1.48m-8.842 5.802c.841.011 1.54.71 1.532 1.534-.008.838-.778 1.584-1.602 1.552-.825-.032-1.492-.75-1.478-1.592.015-.868.675-1.505 1.548-1.494m-7.384-7.345c.012.87-.618 1.519-1.491 1.536-.854.017-1.553-.635-1.575-1.469a1.539 1.539 0 011.535-1.583c.827-.008 1.52.678 1.531 1.516"/></g></svg><svg viewBox="0 0 8 15" id="facebook" xmlns="http://www.w3.org/2000/svg"><defs><path id="ca" d="M0 0h27.463v27.39H0z"/></defs><g fill="none" fill-rule="evenodd" transform="translate(-10 -6)"><mask id="cb" fill="#fff"><use xlink:href="#ca"/></mask><path fill="#D2D2D2" d="M17.297 9.12l-1.293.001c-1.013 0-1.21.48-1.21 1.185v1.554h2.418l-.315 2.435h-2.102v6.247h-2.52v-6.247h-2.108V11.86h2.107v-1.794c0-2.084 1.277-3.219 3.14-3.219.893 0 1.66.066 1.883.096v2.178z" mask="url(#cb)"/></g></svg><svg viewBox="0 0 155.139 155.139" id="facebook_new" xmlns="http://www.w3.org/2000/svg"><path d="M89.584 155.139V84.378h23.742l3.562-27.585H89.584V39.184c0-7.984 2.208-13.425 13.67-13.425l14.595-.006V1.08C115.325.752 106.661 0 96.577 0 75.52 0 61.104 12.853 61.104 36.452v20.341H37.29v27.585h23.814v70.761h28.48z" fill="#010002"/></svg><svg viewBox="0 0 512 512" id="instagram" xmlns="http://www.w3.org/2000/svg"><path d="M352 0H160C71.648 0 0 71.648 0 160v192c0 88.352 71.648 160 160 160h192c88.352 0 160-71.648 160-160V160C512 71.648 440.352 0 352 0zm112 352c0 61.76-50.24 112-112 112H160c-61.76 0-112-50.24-112-112V160C48 98.24 98.24 48 160 48h192c61.76 0 112 50.24 112 112v192z"/><path d="M256 128c-70.688 0-128 57.312-128 128s57.312 128 128 128 128-57.312 128-128-57.312-128-128-128zm0 208c-44.096 0-80-35.904-80-80 0-44.128 35.904-80 80-80s80 35.872 80 80c0 44.096-35.904 80-80 80z"/><circle cx="393.6" cy="118.4" r="17.056"/></svg><svg viewBox="0 0 512 512" id="search" xmlns="http://www.w3.org/2000/svg"><path d="M225.474 0C101.151 0 0 101.151 0 225.474c0 124.33 101.151 225.474 225.474 225.474 124.33 0 225.474-101.144 225.474-225.474C450.948 101.151 349.804 0 225.474 0zm0 409.323c-101.373 0-183.848-82.475-183.848-183.848S124.101 41.626 225.474 41.626s183.848 82.475 183.848 183.848-82.475 183.849-183.848 183.849z"/><path d="M505.902 476.472L386.574 357.144c-8.131-8.131-21.299-8.131-29.43 0-8.131 8.124-8.131 21.306 0 29.43l119.328 119.328A20.74 20.74 0 00491.187 512a20.754 20.754 0 0014.715-6.098c8.131-8.124 8.131-21.306 0-29.43z"/></svg><svg viewBox="0 0 511.962 511.962" id="vk" xmlns="http://www.w3.org/2000/svg"><path d="M507.399 370.471c-1.376-2.304-9.888-20.8-50.848-58.816-42.88-39.808-37.12-33.344 14.528-102.176 31.456-41.92 44.032-67.52 40.096-78.464-3.744-10.432-26.88-7.68-26.88-7.68l-76.928.448s-5.696-.768-9.952 1.76c-4.128 2.496-6.784 8.256-6.784 8.256s-12.192 32.448-28.448 60.032c-34.272 58.208-48 61.28-53.6 57.664-13.024-8.416-9.76-33.856-9.76-51.904 0-56.416 8.544-79.936-16.672-86.016-8.384-2.016-14.528-3.36-35.936-3.584-27.456-.288-50.72.096-63.872 6.528-8.768 4.288-15.52 13.856-11.392 14.4 5.088.672 16.608 3.104 22.72 11.424 7.904 10.72 7.616 34.848 7.616 34.848s4.544 66.4-10.592 74.656c-10.4 5.664-24.64-5.888-55.2-58.72-15.648-27.04-27.488-56.96-27.488-56.96s-2.272-5.568-6.336-8.544c-4.928-3.616-11.84-4.768-11.84-4.768l-73.152.448s-10.976.32-15.008 5.088c-3.584 4.256-.288 13.024-.288 13.024s57.28 133.984 122.112 201.536c59.488 61.92 127.008 57.856 127.008 57.856h30.592s9.248-1.024 13.952-6.112c4.352-4.672 4.192-13.44 4.192-13.44s-.608-41.056 18.464-47.104c18.784-5.952 42.912 39.68 68.48 57.248 19.328 13.28 34.016 10.368 34.016 10.368l68.384-.96s35.776-2.208 18.816-30.336z"/></svg><svg viewBox="0 0 512 512" id="youtube" xmlns="http://www.w3.org/2000/svg"><path d="M490.24 113.92c-13.888-24.704-28.96-29.248-59.648-30.976C399.936 80.864 322.848 80 256.064 80c-66.912 0-144.032.864-174.656 2.912-30.624 1.76-45.728 6.272-59.744 31.008C7.36 138.592 0 181.088 0 255.904v.256c0 74.496 7.36 117.312 21.664 141.728 14.016 24.704 29.088 29.184 59.712 31.264C112.032 430.944 189.152 432 256.064 432c66.784 0 143.872-1.056 174.56-2.816 30.688-2.08 45.76-6.56 59.648-31.264C504.704 373.504 512 330.688 512 256.192v-.16-.096c0-74.848-7.296-117.344-21.76-142.016zM192 352V160l160 96-160 96z"/></svg></svg>